<svg width="189" height="189" viewBox="0 0 189 189" fill="none" xmlns="http://www.w3.org/2000/svg">
<path d="M161.735 45.36C161.458 45.0276 161.112 44.7601 160.72 44.5764C160.329 44.3927 159.901 44.2973 159.469 44.2969H37.9034L33.8576 22.0377C33.4858 19.9964 32.4094 18.1504 30.816 16.8214C29.2226 15.4924 27.2133 14.7649 25.1385 14.7656H11.8125C11.0293 14.7656 10.2781 15.0768 9.72433 15.6306C9.17051 16.1844 8.85938 16.9355 8.85938 17.7188C8.85938 18.502 9.17051 19.2531 9.72433 19.8069C10.2781 20.3607 11.0293 20.6719 11.8125 20.6719H25.1016C25.8008 20.6605 26.4814 20.8976 27.0222 21.3411C27.563 21.7845 27.9289 22.4055 28.0547 23.0934L46.8809 126.674C47.5396 130.276 49.513 133.504 52.418 135.733C49.3718 137.696 47.0008 140.547 45.625 143.899C44.2491 147.252 43.9344 150.946 44.7233 154.483C45.5122 158.021 47.3668 161.231 50.037 163.681C52.7072 166.132 56.0645 167.704 59.6563 168.187C63.2481 168.67 66.9016 168.04 70.1241 166.382C73.3467 164.723 75.9832 162.117 77.6783 158.914C79.3734 155.71 80.0454 152.064 79.6038 148.467C79.1622 144.87 77.6283 141.495 75.2087 138.797H119.698C116.992 141.821 115.407 145.682 115.207 149.735C115.007 153.788 116.204 157.786 118.597 161.063C120.991 164.339 124.437 166.694 128.359 167.735C132.281 168.776 136.441 168.439 140.144 166.782C143.848 165.124 146.87 162.245 148.706 158.626C150.542 155.008 151.08 150.869 150.231 146.901C149.381 142.933 147.196 139.377 144.04 136.827C140.884 134.277 136.948 132.887 132.891 132.891H61.4028C59.3293 132.89 57.3217 132.161 55.7299 130.832C54.138 129.504 53.0626 127.659 52.6911 125.619L49.738 109.266H138.871C142.329 109.266 145.677 108.053 148.332 105.838C150.988 103.622 152.781 100.545 153.4 97.1431L162.378 47.7816C162.455 47.3555 162.437 46.9178 162.326 46.4993C162.215 46.0808 162.013 45.6919 161.735 45.36ZM73.8281 150.609C73.8281 152.946 73.1353 155.229 71.8374 157.172C70.5394 159.115 68.6945 160.629 66.5361 161.523C64.3776 162.417 62.0025 162.651 59.7111 162.195C57.4197 161.739 55.3149 160.614 53.6629 158.962C52.0109 157.31 50.8859 155.205 50.4301 152.914C49.9743 150.622 50.2082 148.247 51.1023 146.089C51.9964 143.93 53.5104 142.086 55.4529 140.788C57.3955 139.49 59.6793 138.797 62.0156 138.797C65.1485 138.797 68.153 140.041 70.3683 142.257C72.5836 144.472 73.8281 147.477 73.8281 150.609ZM144.703 150.609C144.703 152.946 144.01 155.229 142.712 157.172C141.414 159.115 139.57 160.629 137.411 161.523C135.253 162.417 132.878 162.651 130.586 162.195C128.295 161.739 126.19 160.614 124.538 158.962C122.886 157.31 121.761 155.205 121.305 152.914C120.849 150.622 121.083 148.247 121.977 146.089C122.871 143.93 124.385 142.086 126.328 140.788C128.27 139.49 130.554 138.797 132.891 138.797C136.023 138.797 139.028 140.041 141.243 142.257C143.459 144.472 144.703 147.477 144.703 150.609ZM147.59 96.0873C147.218 98.1286 146.142 99.9746 144.548 101.304C142.955 102.633 140.946 103.36 138.871 103.359H48.638L38.9739 50.2031H155.932L147.59 96.0873Z" fill="black"/>
</svg>
